# Blender v2.80 (sub 60) OBJ File: 'ship.blend'
# www.blender.org
mtllib ship.mtl
o Cube
v 2.412326 1.517038 -3.445286
v 1.000000 -1.261293 -2.524208
v 0.804030 1.000000 4.010887
v 0.673384 0.241141 3.989113
v -2.412326 1.517038 -3.445286
v -1.000000 -1.261293 -2.524208
v -0.804030 1.000000 4.010887
v -0.673384 0.241141 3.989113
v 0.000000 -1.000000 -1.000000
v 0.000000 1.000000 3.391895
v 0.000000 -0.213192 1.000000
v 0.000000 0.659786 -3.151160
vt 0.125000 0.500000
vt 0.125000 0.750000
vt 0.375000 0.750000
vt 0.375000 0.500000
vt 0.375000 0.000000
vt 0.375000 0.250000
vt 0.500000 0.250000
vt 0.525494 0.000000
vt 0.625000 0.625000
vt 0.625000 0.750000
vt 0.875000 0.750000
vt 0.875000 0.599506
vt 0.500000 0.750000
vt 0.625000 0.750000
vt 0.625000 1.000000
vt 0.500000 1.000000
vt 0.125000 0.500000
vt 0.375000 0.500000
vt 0.375000 0.750000
vt 0.125000 0.750000
vt 0.875000 0.750000
vt 0.375000 0.000000
vt 0.375000 0.250000
vt 0.375000 0.250000
vt 0.625000 0.250000
vt 0.625000 0.375000
vt 0.375000 0.375000
vt 0.375000 0.250000
vt 0.625000 0.250000
vt 0.625000 1.000000
vn -0.9195 -0.3622 0.1529
vn 0.2559 0.9666 -0.0172
vn 0.3566 -0.4524 -0.8174
vn -0.1116 -0.9607 0.2541
vn 0.9195 -0.3622 0.1529
vn -0.3566 -0.4524 -0.8174
vn -0.2559 0.9666 -0.0172
vn -0.8194 -0.4213 0.3886
vn 0.8194 -0.4213 0.3886
vn 0.1116 -0.9607 0.2541
usemtl Material
s off
f 6/1/1 8/2/1 7/3/1 5/4/1
f 5/5/2 7/6/2 10/7/2 12/8/2
f 9/9/3 6/10/3 5/11/3 12/12/3
f 9/13/4 2/14/4 4/15/4 11/16/4
f 2/17/5 1/18/5 3/19/5 4/20/5
f 9/9/6 12/12/6 1/21/6 2/14/6
f 1/22/7 12/8/7 10/7/7 3/23/7
f 4/24/8 3/25/8 10/26/8 11/27/8
f 8/28/9 11/27/9 10/26/9 7/29/9
f 9/13/10 11/16/10 8/30/10 6/10/10
