{
    "asset" : {
        "generator" : "Khronos glTF Blender I/O v1.2.75",
        "version" : "2.0"
    },
    "scene" : 0,
    "scenes" : [
        {
            "name" : "Scene",
            "nodes" : [
                17
            ]
        }
    ],
    "nodes" : [
        {
            "name" : "Bone.006",
            "rotation" : [
                -0.2766900360584259,
                3.81848474497098e-17,
                -1.5722941549928318e-17,
                0.9609593152999878
            ],
            "translation" : [
                -3.0291573437575443e-25,
                0.873176097869873,
                3.094159595207202e-08
            ]
        },
        {
            "children" : [
                0
            ],
            "name" : "Bone.005",
            "rotation" : [
                -0.2010011076927185,
                2.4757060784375214e-17,
                -2.4405581815934082e-17,
                0.9795910120010376
            ],
            "scale" : [
                1,
                0.9999999403953552,
                0.9999999403953552
            ],
            "translation" : [
                0,
                1.2279512882232666,
                -1.341104507446289e-07
            ]
        },
        {
            "children" : [
                1
            ],
            "name" : "Bone.004",
            "rotation" : [
                -0.5245761871337891,
                -5.083718868672287e-18,
                4.0447623176405757e-17,
                0.851363480091095
            ],
            "translation" : [
                0,
                1.2275333404541016,
                0
            ]
        },
        {
            "name" : "Bone.009",
            "rotation" : [
                0.22663353383541107,
                4.876615548710106e-06,
                -4.2146343730564695e-06,
                0.9739801287651062
            ],
            "scale" : [
                1,
                0.9999998807907104,
                0.9999998807907104
            ],
            "translation" : [
                -6.745221568793536e-12,
                0.9565956592559814,
                1.802109181880951e-07
            ]
        },
        {
            "children" : [
                3
            ],
            "name" : "Bone.008",
            "rotation" : [
                0.24916884303092957,
                -1.0275076419929974e-05,
                -3.2376713079429464e-06,
                0.9684600830078125
            ],
            "scale" : [
                1,
                1.0000001192092896,
                1
            ],
            "translation" : [
                -5.684341886080801e-13,
                1.1486570835113525,
                -2.980232238769531e-07
            ]
        },
        {
            "children" : [
                4
            ],
            "name" : "Bone.007",
            "rotation" : [
                0.5311213135719299,
                -1.0100512781718862e-06,
                -6.331435429274279e-07,
                0.8472958207130432
            ],
            "scale" : [
                1,
                0.9999999403953552,
                1
            ],
            "translation" : [
                0,
                1.2275333404541016,
                0
            ]
        },
        {
            "name" : "Bone.012",
            "rotation" : [
                -2.3718648378689977e-08,
                -1.0247219961456722e-07,
                0.19849668443202972,
                0.9801015853881836
            ],
            "scale" : [
                0.9999999403953552,
                0.9999999403953552,
                1
            ],
            "translation" : [
                2.3096799850463867e-07,
                0.8059379458427429,
                -1.9539925233402755e-14
            ]
        },
        {
            "children" : [
                6
            ],
            "name" : "Bone.011",
            "rotation" : [
                -4.9961460746317243e-08,
                -3.77551110375407e-08,
                0.1903277486562729,
                0.9817206263542175
            ],
            "scale" : [
                0.9999998807907104,
                0.9999998211860657,
                1
            ],
            "translation" : [
                2.086162567138672e-07,
                1.203050971031189,
                -7.105427357601002e-14
            ]
        },
        {
            "children" : [
                7
            ],
            "name" : "Bone.010",
            "rotation" : [
                -3.094354994459536e-08,
                8.502877335558878e-08,
                0.5718634128570557,
                0.820348858833313
            ],
            "scale" : [
                0.9999998807907104,
                0.9999998807907104,
                1
            ],
            "translation" : [
                0,
                1.2275333404541016,
                0
            ]
        },
        {
            "name" : "Bone.015",
            "rotation" : [
                6.708679478606427e-08,
                1.848597008802244e-07,
                -0.16787253320217133,
                0.9858087301254272
            ],
            "scale" : [
                0.9999998807907104,
                0.9999998807907104,
                1
            ],
            "translation" : [
                -2.60770320892334e-07,
                0.8437472581863403,
                -8.348877145181177e-14
            ]
        },
        {
            "children" : [
                9
            ],
            "name" : "Bone.014",
            "rotation" : [
                4.619092219826371e-09,
                1.8776854915358854e-07,
                -0.27172327041625977,
                0.9623754620552063
            ],
            "translation" : [
                -2.980232238769531e-07,
                1.2557127475738525,
                -7.105427357601002e-15
            ]
        },
        {
            "children" : [
                10
            ],
            "name" : "Bone.013",
            "rotation" : [
                -2.1543795913903097e-10,
                -3.043088625531709e-08,
                -0.6037647128105164,
                0.7971627116203308
            ],
            "translation" : [
                0,
                1.2275333404541016,
                0
            ]
        },
        {
            "children" : [
                2,
                5,
                8,
                11
            ],
            "name" : "Bone.003",
            "rotation" : [
                -0.03826020658016205,
                0.007355354260653257,
                -0.03339485824108124,
                0.9986825585365295
            ],
            "scale" : [
                1,
                0.9999999403953552,
                1
            ],
            "translation" : [
                0,
                0.9687161445617676,
                0
            ]
        },
        {
            "children" : [
                12
            ],
            "name" : "Bone.002",
            "rotation" : [
                0.03141635283827782,
                0.00013477714674081653,
                0.04306253045797348,
                0.9985783100128174
            ],
            "scale" : [
                1,
                0.9999999403953552,
                1
            ],
            "translation" : [
                0,
                1.3088757991790771,
                0
            ]
        },
        {
            "children" : [
                13
            ],
            "name" : "Bone.001",
            "rotation" : [
                -0.04388333112001419,
                -0.002762814052402973,
                0.012164096347987652,
                0.9989588260650635
            ],
            "translation" : [
                0,
                1.4067128896713257,
                0
            ]
        },
        {
            "children" : [
                14
            ],
            "name" : "Bone",
            "translation" : [
                0,
                -0.23663297295570374,
                0
            ]
        },
        {
            "mesh" : 0,
            "name" : "Cube",
            "skin" : 0
        },
        {
            "children" : [
                16,
                15
            ],
            "name" : "Armature"
        }
    ],
    "materials" : [
        {
            "doubleSided" : true,
            "emissiveFactor" : [
                0,
                0,
                0
            ],
            "name" : "Palm Trunk",
            "pbrMetallicRoughness" : {
                "baseColorFactor" : [
                    0.8000000715255737,
                    0.4308062791824341,
                    0.035675048828125,
                    1
                ],
                "metallicFactor" : 0,
                "roughnessFactor" : 0.4000000059604645
            }
        },
        {
            "doubleSided" : true,
            "emissiveFactor" : [
                0,
                0,
                0
            ],
            "name" : "Palm Leaf",
            "pbrMetallicRoughness" : {
                "baseColorFactor" : [
                    0.008608704432845116,
                    0.19779768586158752,
                    0,
                    1
                ],
                "metallicFactor" : 0,
                "roughnessFactor" : 0.5
            }
        }
    ],
    "meshes" : [
        {
            "name" : "Cube",
            "primitives" : [
                {
                    "attributes" : {
                        "POSITION" : 0,
                        "NORMAL" : 1,
                        "TEXCOORD_0" : 2,
                        "JOINTS_0" : 3,
                        "WEIGHTS_0" : 4
                    },
                    "indices" : 5,
                    "material" : 0
                },
                {
                    "attributes" : {
                        "POSITION" : 6,
                        "NORMAL" : 7,
                        "TEXCOORD_0" : 8,
                        "JOINTS_0" : 9,
                        "WEIGHTS_0" : 10
                    },
                    "indices" : 11,
                    "material" : 1
                }
            ]
        }
    ],
    "skins" : [
        {
            "inverseBindMatrices" : 12,
            "joints" : [
                15,
                14,
                13,
                12,
                2,
                1,
                0,
                5,
                4,
                3,
                8,
                7,
                6,
                11,
                10,
                9
            ],
            "name" : "Armature"
        }
    ],
    "accessors" : [
        {
            "bufferView" : 0,
            "componentType" : 5126,
            "count" : 224,
            "max" : [
                0.28102290630340576,
                4.670338153839111,
                0.28102290630340576
            ],
            "min" : [
                -0.28102290630340576,
                -0.28102290630340576,
                -0.28102290630340576
            ],
            "type" : "VEC3"
        },
        {
            "bufferView" : 1,
            "componentType" : 5126,
            "count" : 224,
            "type" : "VEC3"
        },
        {
            "bufferView" : 2,
            "componentType" : 5126,
            "count" : 224,
            "type" : "VEC2"
        },
        {
            "bufferView" : 3,
            "componentType" : 5123,
            "count" : 224,
            "type" : "VEC4"
        },
        {
            "bufferView" : 4,
            "componentType" : 5126,
            "count" : 224,
            "type" : "VEC4"
        },
        {
            "bufferView" : 5,
            "componentType" : 5123,
            "count" : 408,
            "type" : "SCALAR"
        },
        {
            "bufferView" : 6,
            "componentType" : 5126,
            "count" : 524,
            "max" : [
                3.312345504760742,
                4.979733943939209,
                3.333312749862671
            ],
            "min" : [
                -3.312345504760742,
                4.647025108337402,
                -3.333312749862671
            ],
            "type" : "VEC3"
        },
        {
            "bufferView" : 7,
            "componentType" : 5126,
            "count" : 524,
            "type" : "VEC3"
        },
        {
            "bufferView" : 8,
            "componentType" : 5126,
            "count" : 524,
            "type" : "VEC2"
        },
        {
            "bufferView" : 9,
            "componentType" : 5123,
            "count" : 524,
            "type" : "VEC4"
        },
        {
            "bufferView" : 10,
            "componentType" : 5126,
            "count" : 524,
            "type" : "VEC4"
        },
        {
            "bufferView" : 11,
            "componentType" : 5123,
            "count" : 792,
            "type" : "SCALAR"
        },
        {
            "bufferView" : 12,
            "componentType" : 5126,
            "count" : 16,
            "type" : "MAT4"
        }
    ],
    "bufferViews" : [
        {
            "buffer" : 0,
            "byteLength" : 2688,
            "byteOffset" : 0
        },
        {
            "buffer" : 0,
            "byteLength" : 2688,
            "byteOffset" : 2688
        },
        {
            "buffer" : 0,
            "byteLength" : 1792,
            "byteOffset" : 5376
        },
        {
            "buffer" : 0,
            "byteLength" : 1792,
            "byteOffset" : 7168
        },
        {
            "buffer" : 0,
            "byteLength" : 3584,
            "byteOffset" : 8960
        },
        {
            "buffer" : 0,
            "byteLength" : 816,
            "byteOffset" : 12544
        },
        {
            "buffer" : 0,
            "byteLength" : 6288,
            "byteOffset" : 13360
        },
        {
            "buffer" : 0,
            "byteLength" : 6288,
            "byteOffset" : 19648
        },
        {
            "buffer" : 0,
            "byteLength" : 4192,
            "byteOffset" : 25936
        },
        {
            "buffer" : 0,
            "byteLength" : 4192,
            "byteOffset" : 30128
        },
        {
            "buffer" : 0,
            "byteLength" : 8384,
            "byteOffset" : 34320
        },
        {
            "buffer" : 0,
            "byteLength" : 1584,
            "byteOffset" : 42704
        },
        {
            "buffer" : 0,
            "byteLength" : 1024,
            "byteOffset" : 44288
        }
    ],
    "buffers" : [
        {
            "byteLength" : 45312,
            "uri" : "data:application/octet-stream;base64,"
        }
    ]
}
