# Blender v2.80 (sub 60) OBJ File: 'ship2.blend'
# www.blender.org
mtllib ship2.mtl
o Wing.L_Cube.002
v -0.165151 0.052448 -1.001966
v -0.648042 0.104753 0.074862
v -0.916137 0.008802 0.202216
v -0.110690 0.040634 -0.286070
v -0.110693 -0.016698 -0.286070
v -0.121248 0.040635 -0.211790
v -0.121251 -0.016698 -0.211790
v -0.648053 -0.093701 0.074862
v -0.258730 0.110921 -0.466490
v -0.258733 0.046782 -0.466490
v -1.013119 -0.016650 0.248285
v -0.592303 -0.161839 0.048377
v -1.013117 0.036524 0.248285
v -0.592286 0.171426 0.048377
vt 0.562762 0.254315
vt 0.610892 0.370685
vt 0.389075 0.370685
vt 0.625000 0.000000
vt 0.625000 0.250000
vt 0.375000 0.250000
vt 0.375000 0.375000
vt 0.625000 0.375000
vt 0.625000 0.500000
vt 0.375000 0.500000
vt 0.625000 0.750000
vt 0.375000 0.750000
vt 0.375000 0.875000
vt 0.500000 0.875000
vt 0.375000 1.000000
vt 0.250000 0.500000
vt 0.250000 0.750000
vt 0.750000 0.500000
vt 0.875000 0.500000
vt 0.875000 0.750000
vt 0.750000 0.750000
vt 0.125000 0.500000
vt 0.125000 0.750000
vt 0.437151 0.254315
vn 0.4291 -0.0000 0.9033
vn -0.8276 0.0000 -0.5613
vn 0.4835 -0.0000 0.8754
vn 0.9900 -0.0001 0.1407
vn 0.9851 -0.0001 0.1722
vn 0.3180 0.9439 0.0888
vn -0.1688 -0.9501 -0.2625
vn 0.0890 -0.9541 -0.2859
vn -0.3092 0.9227 -0.2302
vn 0.7731 -0.0000 -0.6343
usemtl Material.001
s off
f 3/1/1 8/2/1 2/3/1
usemtl Material.002
f 1/4/2 11/5/2 13/6/2
f 14/7/3 12/8/3 7/9/3 6/10/3
f 6/10/4 7/9/4 5/11/4 4/12/4
f 9/13/5 10/14/5 1/15/5
f 14/16/6 6/10/6 4/12/6 9/17/6
f 12/18/7 11/19/7 1/20/7 10/21/7
f 7/9/8 12/18/8 10/21/8 5/11/8
f 13/22/9 14/16/9 9/17/9 1/23/9
f 4/12/10 5/11/10 10/14/10 9/13/10
f 8/2/1 3/1/1 11/5/1 12/8/1
f 3/24/1 13/6/1 11/5/1
f 3/24/1 2/3/1 14/7/1 13/6/1
f 2/3/1 8/2/1 12/8/1 14/7/1
o Hull_Cube.003
v 0.000002 0.065258 -1.210865
v -0.077005 0.169441 -0.044205
v -0.300004 -0.038904 -0.044206
v 0.077019 0.169433 -0.044205
v 0.299996 -0.038936 -0.044205
vt 0.625000 0.000000
vt 0.625000 0.250000
vt 0.375000 0.250000
vt 0.625000 0.500000
vt 0.375000 0.500000
vt 0.375000 0.750000
vt 0.125000 0.500000
vt 0.125000 0.750000
vt 0.875000 0.500000
vt 0.625000 0.750000
vn -0.6786 0.7263 -0.1096
vn -0.0000 0.0000 1.0000
vn 0.6787 0.7262 -0.1096
vn 0.0001 0.9960 -0.0889
vn -0.0001 -0.9960 -0.0889
usemtl Material
s off
f 15/25/11 17/26/11 16/27/11
f 16/27/12 17/26/12 19/28/12 18/29/12
f 18/29/13 19/28/13 15/30/13
f 16/31/14 18/29/14 15/32/14
f 19/28/15 17/33/15 15/34/15
o Wing.R_Cube.004
v 0.201066 0.052429 -1.001967
v 0.683961 0.104682 0.074862
v 0.952046 0.008703 0.202216
v 0.146602 0.040621 -0.286071
v 0.146599 -0.016712 -0.286071
v 0.157161 0.040620 -0.211791
v 0.157158 -0.016712 -0.211791
v 0.683951 -0.093772 0.074862
v 0.294650 0.110892 -0.466490
v 0.294647 0.046753 -0.466490
v 1.049026 -0.016760 0.248286
v 0.628194 -0.161904 0.048377
v 1.049028 0.036414 0.248286
v 0.628212 0.171361 0.048377
vt 0.625000 0.000000
vt 0.375000 0.250000
vt 0.625000 0.250000
vt 0.375000 0.375000
vt 0.375000 0.500000
vt 0.625000 0.500000
vt 0.625000 0.375000
vt 0.375000 0.750000
vt 0.625000 0.750000
vt 0.375000 0.875000
vt 0.375000 1.000000
vt 0.500000 0.875000
vt 0.250000 0.500000
vt 0.250000 0.750000
vt 0.750000 0.500000
vt 0.750000 0.750000
vt 0.875000 0.750000
vt 0.875000 0.500000
vt 0.125000 0.500000
vt 0.125000 0.750000
vt 0.610892 0.370685
vt 0.562762 0.254315
vt 0.437151 0.254315
vt 0.389075 0.370685
vn 0.8276 -0.0000 -0.5613
vn -0.4835 0.0000 0.8754
vn -0.9900 0.0001 0.1407
vn -0.9851 0.0001 0.1722
vn -0.3179 0.9439 0.0888
vn 0.1687 -0.9501 -0.2625
vn -0.0891 -0.9541 -0.2859
vn 0.3092 0.9227 -0.2302
vn -0.7731 0.0000 -0.6343
vn -0.4291 0.0000 0.9033
usemtl Material.002
s off
f 20/35/16 32/36/16 30/37/16
f 33/38/17 25/39/17 26/40/17 31/41/17
f 25/39/18 23/42/18 24/43/18 26/40/18
f 28/44/19 20/45/19 29/46/19
f 33/47/20 28/48/20 23/42/20 25/39/20
f 31/49/21 29/50/21 20/51/21 30/52/21
f 26/40/22 24/43/22 29/50/22 31/49/22
f 32/53/23 20/54/23 28/48/23 33/47/23
f 23/42/24 28/44/24 29/46/24 24/43/24
f 27/55/25 31/41/25 30/37/25 22/56/25
f 22/57/25 30/37/25 32/36/25
f 22/57/25 32/36/25 33/38/25 21/58/25
f 21/58/25 33/38/25 31/41/25 27/55/25
usemtl Material.001
f 22/56/25 21/58/25 27/55/25
